<?xml version="1.0" encoding="UTF-8"?>
<!-- Generated by jsxcad -->
<!DOCTYPE svg PUBLIC "-//W3C//DTD SVG 1.1 Tiny//EN" "http://www.w3.org/Graphics/SVG/1.1/DTD/svg11-tiny.dtd">
<svg viewBox="-250 -250 500 500" width="500" height="500" xmlns="http://www.w3.org/2000/svg"><path d="M-91.00110334028061,37.81194811653978L-92.53735061160887,170.91657775805305L-70.52474745981122,12.925305835398204zM-105.877169534094,64.87494660681955L-107.9628104463847,147.59820429938466L-91.00110334028061,37.81194811653978zM-70.52474745981122,12.925305835398204L-69.04564695656099,189.40623888157893L-45.47752883895337,-8.898495502937878zM-115.08957390131887,121.11293196683656L-105.877169534094,64.87494660681955L-114.18727292880264,93.058052626781zM-45.47752883895337,-8.898495502937878L-38.360705725986975,201.49507943074872L-16.92479325880842,-26.9127925631935zM-16.92479325880842,-26.9127925631935L-2.075173640802152,205.90888840886308L14.035284269925057,-40.483224266779224zM14.035284269925057,-40.483224266779224L37.53038940357105,201.89930724439085L46.2581050182314,-49.06969933392214zM-105.877169534094,64.87494660681955L-115.08957390131887,121.11293196683656L-107.9628104463847,147.59820429938466zM46.2581050182314,-49.06969933392214L77.66389271570414,189.43384746210742L78.53065395430501,-52.22294755153zM-91.00110334028061,37.81194811653978L-107.9628104463847,147.59820429938466L-92.53735061160887,170.91657775805305zM78.53065395430501,-52.22294755153L115.33414069383413,169.283187102842L109.5498883958207,-49.59958413004612zM-70.52474745981122,12.925305835398204L-92.53735061160887,170.91657775805305L-69.04564695656099,189.40623888157893zM109.5498883958207,-49.59958413004612L147.73792102867438,142.96260085651184L137.9115897582685,-40.99847802953127zM137.9115897582685,-40.99847802953127L172.62428407222092,112.5309605433744L162.1220364878933,-26.419013823660695z" style="fill:rgb(83,212,212)"/><path d="M-43.440806078135566,225.46389805986442L-92.53735061160887,170.91657775805305L-66.59104161416693,206.85278135970637z" style="fill:rgb(40,43,166)"/><path d="M-45.47752883895337,-8.898495502937878L-69.04564695656099,189.40623888157893L-38.360705725986975,201.49507943074872z" style="fill:rgb(83,212,212)"/><path d="M206.143214763265,61.22007957779941L194.92315617707152,48.53274528359376L209.30017123396593,90.38259130841418z" style="fill:rgb(247,153,163)"/><path d="M162.1220364878933,-26.419013823660695L188.5423976580326,80.2999021464931L180.6458825760786,-6.138083943283605z" style="fill:rgb(83,212,212)"/><path d="M194.92315617707152,48.53274528359376L206.143214763265,61.22007957779941L192.0033873821338,19.20463714690336z" style="fill:rgb(247,153,163)"/><path d="M-16.92479325880842,-26.9127925631935L-38.360705725986975,201.49507943074872L-2.075173640802152,205.90888840886308zM180.6458825760786,-6.138083943283605L194.92315617707152,48.53274528359376L192.0033873821338,19.20463714690336z" style="fill:rgb(83,212,212)"/><path d="M-92.53735061160887,170.91657775805305L-43.440806078135566,225.46389805986442L-69.04564695656099,189.40623888157893z" style="fill:rgb(40,43,166)"/><path d="M-13.511707577977196,237.83469439041752L-69.04564695656099,189.40623888157893L-43.440806078135566,225.46389805986442z" style="fill:rgb(61,35,185)"/><path d="M14.035284269925057,-40.483224266779224L-2.075173640802152,205.90888840886308L37.53038940357105,201.89930724439085z" style="fill:rgb(83,212,212)"/><path d="M209.30017123396593,90.38259130841418L188.5423976580326,80.2999021464931L203.52378031318315,121.73879343676604z" style="fill:rgb(242,131,182)"/><path d="M180.6458825760786,-6.138083943283605L188.5423976580326,80.2999021464931L194.92315617707152,48.53274528359376z" style="fill:rgb(83,212,212)"/><path d="M188.5423976580326,80.2999021464931L209.30017123396593,90.38259130841418L194.92315617707152,48.53274528359376z" style="fill:rgb(242,131,182)"/><path d="M46.2581050182314,-49.06969933392214L37.53038940357105,201.89930724439085L77.66389271570414,189.43384746210742zM162.1220364878933,-26.419013823660695L172.62428407222092,112.5309605433744L188.5423976580326,80.2999021464931zM78.53065395430501,-52.22294755153L77.66389271570414,189.43384746210742L115.33414069383413,169.283187102842zM137.9115897582685,-40.99847802953127L147.73792102867438,142.96260085651184L172.62428407222092,112.5309605433744zM109.5498883958207,-49.59958413004612L115.33414069383413,169.283187102842L147.73792102867438,142.96260085651184z" style="fill:rgb(83,212,212)"/><path d="M-69.04564695656099,189.40623888157893L-13.511707577977196,237.83469439041752L-38.360705725986975,201.49507943074872z" style="fill:rgb(61,35,185)"/><path d="M203.52378031318315,121.73879343676604L172.62428407222092,112.5309605433744L188.587420894502,153.33577126614978z" style="fill:rgb(231,109,199)"/><path d="M-2.075173640802152,205.90888840886308L-13.511707577977196,237.83469439041752L21.62431524616415,242.7100500582157z" style="fill:rgb(86,32,201)"/><path d="M172.62428407222092,112.5309605433744L203.52378031318315,121.73879343676604L188.5423976580326,80.2999021464931z" style="fill:rgb(231,109,199)"/><path d="M-13.511707577977196,237.83469439041752L-2.075173640802152,205.90888840886308L-38.360705725986975,201.49507943074872z" style="fill:rgb(86,32,201)"/><path d="M188.587420894502,153.33577126614978L147.73792102867438,142.96260085651184L165.02529772639912,182.96564226458685z" style="fill:rgb(214,88,211)"/><path d="M37.53038940357105,201.89930724439085L21.62431524616415,242.7100500582157L59.7613129944003,239.34135020440164z" style="fill:rgb(113,34,213)"/><path d="M165.02529772639912,182.96564226458685L115.33414069383413,169.283187102842L134.20098248344198,208.39830484988394z" style="fill:rgb(193,69,219)"/><path d="M77.66389271570414,189.43384746210742L59.7613129944003,239.34135020440164L98.23180674044434,227.6672609639302z" style="fill:rgb(141,41,220)"/><path d="M147.73792102867438,142.96260085651184L188.587420894502,153.33577126614978L172.62428407222092,112.5309605433744z" style="fill:rgb(214,88,211)"/><path d="M115.33414069383413,169.283187102842L98.23180674044434,227.6672609639302L134.20098248344198,208.39830484988394z" style="fill:rgb(168,53,222)"/><path d="M21.62431524616415,242.7100500582157L37.53038940357105,201.89930724439085L-2.075173640802152,205.90888840886308z" style="fill:rgb(113,34,213)"/><path d="M115.33414069383413,169.283187102842L165.02529772639912,182.96564226458685L147.73792102867438,142.96260085651184z" style="fill:rgb(193,69,219)"/><path d="M91.8607639992701,2.745174180443792L7.110373259163008,-100.85913207683629L100.49152054932466,100.82096761847374z" style="fill:rgb(247,158,158)"/><path d="M59.7613129944003,239.34135020440164L77.66389271570414,189.43384746210742L37.53038940357105,201.89930724439085z" style="fill:rgb(141,41,220)"/><path d="M98.23180674044434,227.6672609639302L115.33414069383413,169.283187102842L77.66389271570414,189.43384746210742z" style="fill:rgb(168,53,222)"/><path d="M7.110373259163008,-100.85913207683629L-28.595484914964597,130.1033863856073L100.49152054932466,100.82096761847374z" style="fill:rgb(127,37,217)"/><path d="M7.110373259163008,-100.85913207683629L91.8607639992701,2.745174180443792L6.382180424840752,-197.15348205016744z" style="fill:rgb(247,158,158)"/><path d="M-28.595484914964597,130.1033863856073L7.110373259163008,-100.85913207683629L-145.1059400524999,-57.96131288733312z" style="fill:rgb(127,37,217)"/><path d="M-130.7480586563948,-155.24215410867407L7.110373259163008,-100.85913207683629L6.382180424840752,-197.15348205016744zM7.110373259163008,-100.85913207683629L-130.7480586563948,-155.24215410867407L-145.1059400524999,-57.96131288733312z" style="fill:rgb(83,212,212)"/></svg>
